<?xml version="1.0" encoding="UTF-8" standalone="no"?>
<!-- Created with Inkscape (http://www.inkscape.org/) -->

<svg
   width="279.92917mm"
   height="270.93335mm"
   viewBox="0 0 279.92917 270.93335"
   version="1.1"
   id="svg1"
   xml:space="preserve"
   xmlns:inkscape="http://www.inkscape.org/namespaces/inkscape"
   xmlns:sodipodi="http://sodipodi.sourceforge.net/DTD/sodipodi-0.dtd"
   xmlns="http://www.w3.org/2000/svg"
   xmlns:svg="http://www.w3.org/2000/svg"><sodipodi:namedview
     id="namedview1"
     pagecolor="#ffffff"
     bordercolor="#000000"
     borderopacity="0.25"
     inkscape:showpageshadow="2"
     inkscape:pageopacity="0.0"
     inkscape:pagecheckerboard="0"
     inkscape:deskcolor="#d1d1d1"
     inkscape:document-units="mm" /><defs
     id="defs1"><style
       id="style1">.cls-1{fill:#04aec2;}.cls-2{fill:#fff;fill-rule:evenodd;}.cls-3{fill:none;}</style></defs><g
     inkscape:label="Livello 1"
     inkscape:groupmode="layer"
     id="layer1"
     transform="translate(35.055936,-13.033335)"><g
       id="g1"
       transform="matrix(0.26458333,0,0,0.26458333,-26.0601,13.033335)"
       inkscape:export-filename="g1.svg"
       inkscape:export-xdpi="96"
       inkscape:export-ydpi="96"><rect
         class="cls-1"
         width="1024"
         height="1024"
         id="rect1"
         x="0"
         y="0"
         ry="123.05331" /><g
         id="Livello_1-2"
         data-name="Livello_1"><path
           class="cls-2"
           d="m 513.67,725.31 a 20.7,20.7 0 1 1 20.69,-20.69 20.69,20.69 0 0 1 -20.69,20.69 z m 0,-55.17 a 34.48,34.48 0 1 0 34.48,34.48 34.48,34.48 0 0 0 -34.48,-34.48 z"
           id="path1" /><path
           class="cls-2"
           d="m 681.35,677 a 6.881635,6.881635 0 0 0 -13.76,-0.3 31.68,31.68 0 0 0 -8.49,-4.51 c -25.7,-8.89 -49.52,11.7 -46.44,36.75 a 34.63,34.63 0 0 0 28.21,29.58 34.07,34.07 0 0 0 13.11,-0.23 6.8908653,6.8908653 0 1 0 -3.05,-13.44 21,21 0 0 1 -7.93,0.15 20.73,20.73 0 1 1 10.48,-40 20.5,20.5 0 0 1 14.06,19.66 v 27.6 a 6.9,6.9 0 1 0 13.79,0 V 677 Z"
           id="path2" /><path
           class="cls-2"
           d="m 761.92,677 a 6.881635,6.881635 0 0 0 -13.76,-0.3 31.83,31.83 0 0 0 -8.49,-4.51 c -25.71,-8.89 -49.52,11.7 -46.45,36.75 a 34.63,34.63 0 0 0 28.22,29.58 34.13,34.13 0 0 0 13.12,-0.23 6.88,6.88 0 0 0 5.43,-6.74 7,7 0 0 0 -8.49,-6.7 21,21 0 0 1 -7.91,0.06 20.73,20.73 0 1 1 10.48,-40 20.49,20.49 0 0 1 14,19.66 v 27.6 a 20.92,20.92 0 0 1 -20.81,20.52 20.33,20.33 0 0 1 -13.94,-5.56 6.65,6.65 0 0 0 -4.55,-1.8 6.74,6.74 0 0 0 -4.6,11.68 34.46,34.46 0 0 0 57.1,-19.12 36.83,36.83 0 0 0 0.53,-5.06 c 0,-0.22 0.06,-0.44 0.06,-0.66 v -27.56 0 -0.05 c 0,0 0,0 0,0 V 677 Z"
           id="path3" /><path
           class="cls-2"
           d="m 331.89,670.28 a 34.48,34.48 0 1 0 19.75,59.78 6.74,6.74 0 0 0 -4.59,-11.68 6.61,6.61 0 0 0 -4.55,1.8 20.33,20.33 0 0 1 -13.95,5.56 20.94,20.94 0 1 1 19.87,-26.74 h -26.25 a 6.47,6.47 0 1 0 0,12.93 h 32.08 a 8.56,8.56 0 0 0 8.63,-8.8 33.87,33.87 0 0 0 -2.12,-10.31 34.77,34.77 0 0 0 -28.87,-22.53 z"
           id="path4" /><path
           class="cls-2"
           d="m 840.26,692.82 a 34.45,34.45 0 1 0 -37.58,45.84 34.41,34.41 0 0 0 28.45,-8.6 6.7330695,6.7330695 0 1 0 -9.15,-9.88 20.26,20.26 0 0 1 -13.93,5.56 20.94,20.94 0 1 1 19.86,-26.74 h -26.26 a 6.47,6.47 0 0 0 0,12.93 h 32.1 a 8.55,8.55 0 0 0 8.61,-8.8 33.43,33.43 0 0 0 -2.11,-10.3 z"
           id="path5" /><path
           class="cls-2"
           d="m 481.88,663.23 a 6.9,6.9 0 0 0 -6.9,-6.9 h -8.72 v -9.5 a 6.9,6.9 0 1 0 -13.8,0 v 85.34 a 6.9,6.9 0 1 0 13.8,0 v -62 H 475 a 6.9,6.9 0 0 0 6.9,-6.9 z"
           id="path6" /><path
           class="cls-2"
           d="m 251.67,670.16 a 34.66,34.66 0 0 0 -17.45,4.89 33.64,33.64 0 0 0 -8.75,7.49 31.44,31.44 0 0 0 -25,-12.38 34.64,34.64 0 0 0 -17.47,4.89 22.92,22.92 0 0 0 -2.28,1.58 A 6.88,6.88 0 0 0 167,677 v 55.2 a 6.9,6.9 0 1 0 13.79,0 v -30.11 0 -1.85 c 0,-9.17 7.66,-16.67 17.86,-17 C 209.29,682.9 218,692 218,702.69 v 29.42 a 7,7 0 0 0 14,0 v -30.41 0 -1.44 c 0,-9.18 7.65,-16.68 17.85,-17 10.68,-0.34 19.43,8.76 19.43,19.45 v 29.42 a 7,7 0 1 0 14,0 V 701.7 a 31.54,31.54 0 0 0 -31.56,-31.54 z"
           id="path7" /><path
           class="cls-2"
           d="m 407.11,670.15 a 34.72,34.72 0 0 0 -17.46,4.85 20.71,20.71 0 0 0 -2.27,1.59 6.88,6.88 0 0 0 -13.75,0.4 v 55.21 a 6.9,6.9 0 0 0 13.8,0 v -30.11 0 -1.85 c 0,-9.17 7.65,-16.68 17.85,-17 10.68,-0.34 19.43,8.76 19.43,19.45 v 29.41 a 7,7 0 1 0 14,0 v -30.41 a 31.55,31.55 0 0 0 -31.6,-31.54 z"
           id="path8" /><path
           class="cls-2"
           d="m 604.45,672.21 a 31.33,31.33 0 0 0 -11.21,-2.05 34.47,34.47 0 0 0 -17.45,4.89 19.51,19.51 0 0 0 -2.28,1.58 6.88,6.88 0 0 0 -13.75,0.41 v 55.16 a 6.89,6.89 0 1 0 13.78,0 v -32.12 c 0.09,-9.08 7.71,-16.52 17.88,-16.85 a 17.63,17.63 0 0 1 7.51,1.39 7,7 0 0 0 8.19,-1.9 6.75,6.75 0 0 0 -2.67,-10.51 z"
           id="path9" /><path
           class="cls-2"
           d="m 768,363 v 3.37 l 0.15,1.77 c 1,7.78 2.09,11.07 5.48,17.89 v 0 c 0.25,0.51 0.42,0.76 0.67,1.25 v 0 a 80.51,80.51 0 0 0 8.42,12.05 v 0 l 10.42,11 c 0.24,0.21 0.3,0.21 0.54,0.42 v 0 l 7.17,6.44 c 0.23,0.22 0.3,0.21 0.53,0.43 v 0 l 2.69,2.25 c 0.37,0.28 0.7,0.57 1,0.88 v 0 c 1.6,1.43 6.64,5.31 8.75,6.89 v 0 c 0.41,0.3 0.72,0.57 1.15,0.9 v 0 l 6.67,5 a 7.13,7.13 0 0 0 2.36,1.06 v 0 l 0.2,0.06 v 0 l 0.26,0.09 h 1.93 l 1.64,-0.52 c 1.65,-0.76 6.73,-4.85 8.5,-6.19 v 0 c 3.19,-2.37 6.27,-4.88 9.38,-7.36 v 0 l 10.12,-8.77 c 0.39,-0.39 0.68,-0.55 1.09,-1 v 0 c 1.77,-1.8 4.91,-4.47 6.28,-6.24 v 0 l 2,-2.19 c 1.42,-1.43 2.61,-3 3.91,-4.53 v 0 a 64.3,64.3 0 0 0 10.86,-18.4 v 0 a 41.26,41.26 0 0 0 2,-21.74 v 0 a 30.79,30.79 0 0 0 -2,-6.41 v 0 a 35.5,35.5 0 0 0 -4.79,-7.84 v 0 c -0.68,-0.84 -1.29,-1.41 -2,-2.2 v 0 -0.07 0 l -2.13,-2 a 32.17,32.17 0 0 0 -3.61,-2.65 v 0 c -0.45,-0.3 -0.8,-0.48 -1.29,-0.76 v 0 c -0.84,-0.5 -1.88,-1 -2.78,-1.42 v 0 a 24.63,24.63 0 0 0 -3.06,-1.16 v 0 c -1.09,-0.31 -2,-0.63 -3.22,-0.87 v 0 a 35.71,35.71 0 0 0 -6.9,-0.68 v 0 a 32.09,32.09 0 0 0 -15.73,4 v 0 l -3.75,2.4 c -0.44,0.29 -0.79,0.62 -1.21,0.95 v 0 a 39.72,39.72 0 0 0 -3.23,3 v 0 c -0.39,0.38 -0.66,0.73 -1,1.15 v 0 A 32.84,32.84 0 0 0 818.16,359 v 0 a 31.39,31.39 0 0 0 0.93,14.74 v 0 a 29.31,29.31 0 0 0 7,12 v 0 c 3.55,3.52 4,3.7 8.26,6.32 v 0 c 2.85,1.73 6.81,1.59 8.95,-1.33 v 0 a 6.39,6.39 0 0 0 -1.07,-8.84 v 0 c -1.27,-1 -5,-2.49 -7.21,-5.32 v 0 c -3,-3.82 -4.5,-7.11 -4.5,-12.23 v 0 a 15.54,15.54 0 0 1 0.37,-3.84 v 0 A 19.85,19.85 0 0 1 856,345.35 v 0 a 19.85,19.85 0 0 1 9.92,6.81 v 0 a 19.38,19.38 0 0 1 4.22,12.52 v 0 c 0,8 -2.65,13 -6.18,19 v 0 a 49.63,49.63 0 0 1 -5.3,7.23 v 0 l -1,1.16 c -1.07,1.38 -2.67,2.84 -3.51,3.84 v 0 c -1.08,1.3 -2.37,2.47 -3.56,3.67 v 0 c -0.41,0.43 -0.75,0.62 -1.14,1 v 0 c -1.14,1.12 -3.1,3.06 -4.32,4 v 0 l -5.62,4.85 c -3,2.55 -6.15,5.05 -9.32,7.41 v 0 c -0.85,0.63 -1.54,1.18 -2.39,1.82 v 0 l -2.34,1.76 a 56.09,56.09 0 0 0 -4.56,-3.52 v 0 c -0.79,-0.59 -1.52,-1.19 -2.3,-1.78 v 0 l -6.7,-5.34 -10.12,-8.9 c -1.24,-1 -3.28,-3.28 -4.53,-4.51 v 0 c -1.33,-1.34 -2.5,-2.77 -3.78,-4.16 v 0 c -0.25,-0.25 -0.26,-0.34 -0.49,-0.59 v 0 a 5.64,5.64 0 0 1 -0.45,-0.51 v 0 l -2.65,-3.37 a 59.58,59.58 0 0 1 -6,-10 v 0 a 29.37,29.37 0 0 1 -2.72,-16.61 v 0 a 19.76,19.76 0 0 1 2,-6 v 0 A 22.1,22.1 0 0 1 786,351 v 0 a 17.57,17.57 0 0 1 4.93,-4 v 0 a 20.27,20.27 0 0 1 5.91,-2.15 v 0 a 21,21 0 0 1 10.62,0.88 v 0 a 16.66,16.66 0 0 0 2.92,1 v 0 a 6.41,6.41 0 0 0 5.8,-1.87 v 0 c 2.3,-2.4 2.3,-5.87 0.15,-8.65 v 0 c -1.46,-1.89 -6.17,-3.23 -8.35,-3.69 v 0 a 35.44,35.44 0 0 0 -14.47,-0.09 v 0 a 34.18,34.18 0 0 0 -11.18,4.84 v 0 A 28.05,28.05 0 0 0 779,340 v 0 a 29.39,29.39 0 0 0 -3,3 v 0 a 33.76,33.76 0 0 0 -4,5.95 v 0 a 8.33,8.33 0 0 0 -0.67,1.25 v 0 c -0.22,0.55 -0.43,0.87 -0.64,1.41 v 0 c -0.18,0.47 -0.39,1 -0.56,1.48 v 0 a 27.4,27.4 0 0 0 -1,3 v 0 a 25.86,25.86 0 0 0 -1,6 v 0 0.58 a 0.24,0.24 0 0 0 0,0.09 v 0 z"
           id="path10" /><path
           class="cls-2"
           d="m 768,363 v 3.37 l 0.15,1.77 c 1,7.79 2.09,11.07 5.48,17.9 v 0 c 0.25,0.51 0.42,0.76 0.67,1.24 v 0 a 80,80 0 0 0 8.42,12.05 v 0 l 10.42,11 c 0.24,0.21 0.3,0.21 0.54,0.42 v 0 l 7.17,6.44 c 0.23,0.21 0.3,0.21 0.53,0.42 v 0 l 2.69,2.25 c 0.37,0.29 0.7,0.58 1,0.89 v 0 c 1.6,1.42 6.64,5.31 8.75,6.88 v 0 c 0.34,0.25 0.61,0.48 0.94,0.73 l 10.62,-7.95 a 56.84,56.84 0 0 0 -4.56,-3.51 v 0 c -0.79,-0.59 -1.52,-1.19 -2.3,-1.79 v 0 l -6.7,-5.34 -10.12,-8.89 c -1.24,-1 -3.28,-3.28 -4.53,-4.51 v 0 c -1.33,-1.34 -2.5,-2.78 -3.78,-4.16 v 0 c -0.25,-0.26 -0.26,-0.35 -0.49,-0.59 v 0 c -0.19,-0.23 -0.27,-0.27 -0.45,-0.51 v 0 l -2.65,-3.38 a 59.18,59.18 0 0 1 -6,-10 v 0 a 29.37,29.37 0 0 1 -2.72,-16.61 v 0 a 19.69,19.69 0 0 1 2,-5.94 v 0 A 22.18,22.18 0 0 1 786,351 v 0 a 17.71,17.71 0 0 1 4.93,-4 v 0 a 20.27,20.27 0 0 1 5.91,-2.16 v 0 a 20.87,20.87 0 0 1 10.62,0.89 v 0 a 17.51,17.51 0 0 0 2.92,1 v 0 a 6.44,6.44 0 0 0 5.8,-1.87 v 0 c 2.3,-2.4 2.3,-5.87 0.15,-8.65 v 0 c -1.46,-1.91 -6.17,-3.24 -8.35,-3.7 v 0 a 38.28,38.28 0 0 0 -7.82,-0.79 v 0 a 28.63,28.63 0 0 0 -6.65,0.7 34.26,34.26 0 0 0 -11.17,4.85 v 0 A 27.11,27.11 0 0 0 779,340 v 0 a 29.39,29.39 0 0 0 -3,3 v 0 a 34.31,34.31 0 0 0 -4,5.95 v 0 a 10.77,10.77 0 0 0 -0.67,1.25 v 0 c -0.22,0.55 -0.42,0.88 -0.63,1.41 v 0 c -0.19,0.47 -0.39,1 -0.57,1.48 v 0 a 30.51,30.51 0 0 0 -1,3 v 0 a 25.85,25.85 0 0 0 -1,6 v 0 0.57 a 0.36,0.36 0 0 0 0,0.1 v 0 z m 62.16,53.85 -1.64,1.26 v 0 l 2,-1.46 v 0 l -0.3,0.22 z"
           id="path11" /><path
           class="cls-2"
           d="m 392.36,257.84 a 47.42,47.42 0 0 0 -42.08,23.61 v 0 l -158.6,274.7 A 47.46,47.46 0 0 0 209,620.81 v 0 a 47.47,47.47 0 0 0 64.66,-17.32 v 0 L 392.36,397.91 483.09,557 c 12.9,22.62 41.37,29 64.66,17.33 v 0 c 23.29,-11.64 30.26,-42.06 17.33,-64.66 v 0 L 434.45,281.45 a 47.29,47.29 0 0 0 -41.11,-23.63 v 0 h -1 z"
           id="path12" /><path
           class="cls-2"
           d="M 616.11,257.84 A 47.41,47.41 0 0 0 574,281.45 v 0 L 504,403 l 54.42,95.09 57.67,-100.17 118.7,205.57 a 47.49,47.49 0 0 0 64.67,17.32 v 0 a 47.47,47.47 0 0 0 17.33,-64.66 v 0 l -158.6,-274.7 a 47.42,47.42 0 0 0 -41.11,-23.62 h -1 z"
           id="path13" /><rect
           class="cls-3"
           x="-34"
           y="89.989998"
           width="1058"
           height="844.03003"
           id="rect13" /></g></g></g></svg>
