<?xml version="1.0" encoding="UTF-8" standalone="no"?>
<!-- Created with Inkscape (http://www.inkscape.org/) -->

<svg
   width="6.3521075mm"
   height="4.7625003mm"
   viewBox="0 0 6.3521075 4.7625003"
   version="1.1"
   id="svg1"
   xml:space="preserve"
   inkscape:export-filename="bed_out.svg"
   inkscape:export-xdpi="96"
   inkscape:export-ydpi="96"
   sodipodi:docname="room_in 2.svg"
   inkscape:version="1.3 (0e150ed6c4, 2023-07-21)"
   xmlns:inkscape="http://www.inkscape.org/namespaces/inkscape"
   xmlns:sodipodi="http://sodipodi.sourceforge.net/DTD/sodipodi-0.dtd"
   xmlns="http://www.w3.org/2000/svg"
   xmlns:svg="http://www.w3.org/2000/svg"><sodipodi:namedview
     id="namedview1"
     pagecolor="#ffffff"
     bordercolor="#000000"
     borderopacity="0.25"
     inkscape:showpageshadow="2"
     inkscape:pageopacity="0.0"
     inkscape:pagecheckerboard="0"
     inkscape:deskcolor="#d1d1d1"
     inkscape:document-units="mm"
     showguides="false"
     showgrid="false"
     inkscape:zoom="65.611107"
     inkscape:cx="11.99492"
     inkscape:cy="10.219306"
     inkscape:window-width="2560"
     inkscape:window-height="1377"
     inkscape:window-x="1912"
     inkscape:window-y="-8"
     inkscape:window-maximized="1"
     inkscape:current-layer="layer1" /><defs
     id="defs1" /><g
     inkscape:label="Livello 1"
     inkscape:groupmode="layer"
     id="layer1"
     transform="translate(-99.978075,-147.59959)"><path
       style="fill:#eebf7d;fill-opacity:1;stroke-width:0.00661458"
       d="m 105.40415,150.96349 -0.37041,-0.37041 0.28442,-0.29105 h -0.84005 v -0.52916 h 0.84005 l -0.28442,-0.29104 0.37041,-0.37042 0.92604,0.92604 z"
       id="path7"
       inkscape:export-filename="bed_in.svg"
       inkscape:export-xdpi="96"
       inkscape:export-ydpi="96" /><path
       d="m 99.978076,152.36208 v -0.52916 h 0.529164 v -3.70417 q 0,-0.21828 0.15544,-0.37372 0.15545,-0.15544 0.37373,-0.15544 h 2.64583 q 0.21828,0 0.37372,0.15544 0.15545,0.15544 0.15545,0.37372 v 3.70417 h 0.52916 v 0.52916 z m 3.174994,-0.52916 h 0.52917 v -3.70417 h -1.19063 v -0.29104 q 0.29105,0.0529 0.47625,0.2712 0.18521,0.21828 0.18521,0.50932 z m -1.05833,-1.5875 q 0.11245,0 0.18852,-0.0761 0.0761,-0.0761 0.0761,-0.18851 0,-0.11245 -0.0761,-0.18852 -0.0761,-0.0761 -0.18852,-0.0761 -0.11245,0 -0.18852,0.0761 -0.0761,0.0761 -0.0761,0.18852 0,0.11244 0.0761,0.18851 0.0761,0.0761 0.18852,0.0761 z"
       id="path1"
       style="fill:#eebf7d;fill-opacity:1;stroke-width:0.00661458" /></g></svg>
