<svg width="28" height="28" viewBox="0 0 28 28" fill="none" xmlns="http://www.w3.org/2000/svg">
<path d="M13.5552 11.036L16.7522 13.168C16.8892 13.2593 17.0015 13.3841 17.0792 13.5292C17.1568 13.6743 17.1975 13.8364 17.1975 14.001C17.1975 14.1656 17.1568 14.3277 17.0792 14.4728C17.0015 14.618 16.8892 14.7417 16.7522 14.833L13.5552 16.965C13.4046 17.0655 13.2296 17.1232 13.0488 17.132C12.8679 17.1408 12.6881 17.1003 12.5285 17.0149C12.3689 16.9295 12.2354 16.8023 12.1424 16.647C12.0493 16.4917 12.0002 16.3141 12.0002 16.133V11.87C11.9999 11.6888 12.0487 11.5109 12.1416 11.3553C12.2345 11.1997 12.3679 11.0723 12.5276 10.9866C12.6873 10.901 12.8673 10.8603 13.0483 10.869C13.2293 10.8777 13.4045 10.9354 13.5552 11.036Z" stroke="black" stroke-width="1.2" stroke-linecap="round" stroke-linejoin="round"/>
<path d="M22.3149 17.4442C22.7672 16.3522 23 15.1819 23 14C23 11.6131 22.0518 9.32387 20.364 7.63604C18.6761 5.94821 16.3869 5 14 5C11.6131 5 9.32387 5.94821 7.63604 7.63604C5.94821 9.32387 5 11.6131 5 14C5 15.1819 5.23279 16.3522 5.68508 17.4442C6.13738 18.5361 6.80031 19.5282 7.63604 20.364C8.47177 21.1997 9.46392 21.8626 10.5558 22.3149C11.6478 22.7672 12.8181 23 14 23C15.1819 23 16.3522 22.7672 17.4442 22.3149C18.5361 21.8626 19.5282 21.1997 20.364 20.364C21.1997 19.5282 21.8626 18.5361 22.3149 17.4442Z" stroke="black" stroke-width="1.2" stroke-linecap="round" stroke-linejoin="round"/>
</svg>
